<svg width="415.2799999999999" height="415.2799999999999" xmlns="http://www.w3.org/2000/svg" xmlns:xlink="http://www.w3.org/1999/xlink">
 <defs>
  <style>.cls-1{fill:#323232;}</style>
 </defs>
 <title>лого</title>
 <g>
  <title>Layer 1</title>
  <path id="svg_1" d="m211.91,228.31a4.34,4.34 0 0 1 1.09,-2.71q11.47,-18.84 23,-37.65c0.94,-1.51 1.26,-2.2 -1,-2.66q-34.92,-7.12 -69.79,-14.45c-1.35,-0.28 -2,0 -2.37,1.4c-1.59,5.36 -1.63,5.34 3.17,8.29c1.7,1 4.15,1.81 4.82,3.33s-0.22,3.91 -0.84,5.78c-1.15,3.54 -0.36,5.91 3,7.76c2.58,1.4 4.58,3.08 8,2.66c12.69,-1.55 25.43,-2.58 38.15,-3.79a6.79,6.79 0 0 1 2.66,0.27c-5.68,0.78 -11.36,1.6 -17.05,2.35c-8.77,1.17 -17.54,2.27 -26.3,3.45a3.76,3.76 0 0 1 -3.3,-0.8a8.16,8.16 0 0 0 -5.51,-1.87c-17.6,-0.73 -35.18,-1.56 -52.77,-2.38a4.3,4.3 0 0 0 -2.63,0.43c28.89,14.84 58,28.85 85.58,45.73l-0.31,0.66c-2.09,-0.86 -4.19,-1.69 -6.25,-2.61c-18.14,-8 -35.51,-17.61 -53,-26.83c-9.66,-5.08 -19.19,-10.41 -28.75,-15.68a4.7,4.7 0 0 0 -3.39,-0.55q-7.77,1.5 -15.55,2.91a5.47,5.47 0 0 0 -2.89,1.48c-3.3,3.09 -6.66,6.11 -9.72,9.54c1.46,-1 3,-2 4.35,-3.14a29.81,29.81 0 0 1 16.26,-7.54c2.93,-0.38 6,-2.06 8.67,-1.57s5,2.93 7.54,4.55c3,2 6.05,4 9.65,6.39l-51.09,5.18c-0.23,-0.77 0.43,-1.05 0.74,-1.44c4.08,-5 8.2,-10 12.28,-15a3.29,3.29 0 0 1 2.41,-1.34c20.13,-2.05 39.87,-6.41 59.74,-10c5.19,-0.94 10.36,-1.93 15.55,-2.89a2.43,2.43 0 0 0 1.78,-0.75c-2.7,-1.59 -5.33,-3.21 -8,-4.71c-1.28,-0.71 -2,-1.47 -1.27,-3c2.36,-4.77 1.37,-8.88 -2.28,-12.61c-1.08,-1.1 -1.69,-2.66 -2.75,-3.77c-1.63,-1.72 -1.44,-3.24 -0.25,-5.11s2.18,-4.22 3.42,-6.24a2.13,2.13 0 0 0 -0.33,-2.91c-2,-2.33 -3.8,-4.78 -5.78,-7.08c-0.86,-1 -0.89,-1.66 0,-2.61c1.82,-1.86 3.47,-3.88 5.28,-5.75c0.93,-1 1.07,-1.66 0.18,-2.79c-2.25,-2.86 -4.3,-5.88 -6.55,-8.74a2.16,2.16 0 0 1 -0.1,-2.94c1.69,-2.62 3.18,-5.38 4.95,-7.94a2.82,2.82 0 0 0 -0.11,-3.75c-2,-2.8 -3.71,-5.75 -5.64,-8.56c-0.74,-1.08 -0.7,-1.74 0.29,-2.62c1.72,-1.53 3.25,-3.28 5,-4.81a2.23,2.23 0 0 0 0.63,-3c-1.88,-4.12 -3.54,-8.34 -5.42,-12.46a1.79,1.79 0 0 1 0.77,-2.69c2.11,-1.39 4.05,-3 6.19,-4.38c1.57,-1 1.58,-1.85 0.75,-3.38c-1.81,-3.32 -3.32,-6.8 -5.12,-10.13c-0.77,-1.44 -0.49,-2.19 0.77,-3.09c2.91,-2.07 5.67,-4.34 8.55,-6.44a2.81,2.81 0 0 0 1.3,-2.79c-0.29,-4.08 -0.41,-8.17 -0.74,-12.24c-0.15,-1.7 0,-2.64 2,-3.07c3.84,-0.83 7.62,-2 11.36,-3.12c1.47,-0.46 2.06,-0.1 2.73,1.2q12.63,24.44 25.4,48.8c0.37,0.7 0.41,2.4 1.76,1.66s3.91,-0.39 4,-3.1c0.11,-3.56 0.45,-7.12 0.51,-10.68c0,-1.65 0.52,-2.34 2.22,-2.56c2.8,-0.35 5.54,-1.13 8.33,-1.49c1.59,-0.2 1.85,-0.88 1.81,-2.29c-0.09,-3.64 0.08,-7.29 -0.07,-10.93c-0.08,-1.74 0.56,-2.27 2.15,-2.45c3.47,-0.4 6.91,-1 10.37,-1.42a2.34,2.34 0 0 0 2.23,-1.73c1.42,-3.75 3,-7.44 4.35,-11.21c0.55,-1.55 1.26,-1.82 2.76,-1.4q4.94,1.36 9.95,2.41c1.41,0.29 1.73,0.92 1.7,2.25c-0.27,11.59 -0.48,23.18 -0.72,34.77s-0.48,23.32 -0.72,35q-0.61,29.09 -1.24,58.17a8.4,8.4 0 0 0 0.41,3.17c1.49,-2.43 3,-4.82 4.45,-7.29a3.37,3.37 0 0 1 2.82,-1.78c9,-1.23 17.94,-2.55 26.91,-3.84a5.27,5.27 0 0 1 3.85,0.5a417.87,417.87 0 0 0 45.78,24.37a4.11,4.11 0 0 1 2.28,1.56c-7,2 -13.81,4.32 -20.79,5.84c-5.84,1.27 -10,4.24 -13.87,8.71c-4.59,5.35 -8.92,10.71 -11,17.55c-1.77,5.83 -6.88,9 -10.8,13c1.63,-2 3.19,-4.08 4.9,-6a17.65,17.65 0 0 0 4.2,-7.24c2.06,-8.39 7.15,-15 13,-20.9a16.87,16.87 0 0 0 5,-12.53a56.4,56.4 0 0 1 0.79,-7.53a2.49,2.49 0 0 0 -1.41,-2.87q-9,-5.31 -17.91,-10.86a6.69,6.69 0 0 0 -4.84,-1q-12.12,1.8 -24.27,3.43a4.26,4.26 0 0 0 -3.36,2.12q-22.45,35.1 -45,70.16c-0.43,0.75 -0.93,1.48 -1.69,2.65zm32.59,-54.31c-0.06,-1 -0.83,-1.34 -1.33,-1.83q-33.32,-32.55 -66.65,-65.08c-5.8,-5.66 -11.62,-11.28 -17.37,-17c-1,-1 -1.54,-1.05 -2.47,0a50.92,50.92 0 0 1 -4.09,4.09a1.55,1.55 0 0 0 -0.25,2.43c1.87,2.68 3.56,5.49 5.47,8.13c1,1.38 1.2,2.41 0.15,3.92c-1.73,2.49 -3.09,5.24 -4.76,7.78a2.12,2.12 0 0 0 0.2,2.92c2,2.57 4,5.17 5.87,7.85a15.06,15.06 0 0 0 4.9,4.39q37.83,22.4 75.72,44.77c0.74,0.44 1.57,1.68 2.47,0.84a15,15 0 0 0 2.14,-3.21zm1.93,-3.66c1.57,-1.36 2,-2.68 0.55,-4.23a12.72,12.72 0 0 1 -1,-1.47q-32.19,-47.37 -64.37,-94.73q-8.52,-12.52 -17.06,-25c-0.38,-0.55 -0.53,-2 -1.87,-0.91c-2.87,2.36 -5.77,4.68 -8.67,7c-0.45,0.36 -0.71,0.72 -0.37,1.32c2.83,4.87 4.71,10.32 8.29,14.71q36,44.25 72.24,88.37q6.11,7.43 12.26,14.92l0,0.02zm4.22,-6.85c1.5,-1.27 0.77,-2.25 0.27,-3.25c-4.35,-8.69 -8.72,-17.37 -13,-26.08c-1,-2 -2.28,-4 -2.72,-6.32q-2.52,-13.23 -5,-26.46c-2.56,-13.48 -5.15,-27 -7.68,-40.46c-0.29,-1.58 -0.73,-2.31 -2.55,-1.76a37.16,37.16 0 0 1 -5.68,1.05c-1.29,0.17 -1.74,0.8 -1.76,2.05c0,2.45 -0.36,4.91 -0.22,7.34c0.19,3.36 -0.75,5.71 -4.32,6.47c-2.13,0.45 -2.09,1.48 -1.15,3.28q18.42,35.28 36.76,70.65c2.31,4.46 4.65,8.91 7.05,13.47l0,0.02zm82.63,8.69l0.08,-0.32c-0.46,-0.19 -0.91,-0.41 -1.39,-0.57c-5.67,-1.94 -11.34,-3.89 -17,-5.78c-0.6,-0.2 -1.86,-1.3 -1.81,0.53c0,1.17 -1.69,3.07 1.1,3.41c1.76,0.21 3.52,0.5 5.28,0.75l13.74,1.98z" class="cls-1"/>
  <path transform="translate(-2 17)" id="svg_2" d="m203.60046,227.77605c1.36,-2.73 3.47,-4.54 5.15,-6.68q26.09,-33.22 52.22,-66.42c1,-1.24 1.72,-1.44 3.12,-0.78c5.84,2.75 11.7,5.46 17.62,8c1.73,0.75 2.34,1.56 2.25,3.58c-0.57,12.61 -1,25.22 -1.35,37.84a3.71,3.71 0 0 1 -1.06,2.54q-7.62,8.58 -15.19,17.21a3.87,3.87 0 0 1 -2.43,1.36c-12.08,2 -24.15,4.08 -36.23,6.09c-3.74,0.62 -7.36,-0.61 -11,-1c-4.31,-0.38 -8.56,-1.1 -13.1,-1.74z" class="cls-1"/>
  <path transform="translate(-2 17)" id="svg_3" d="m421.81,249.9c-15.56,2.36 -383.95,2.44 -412.27,-0.22c4,0 8,0 11.93,0c15.16,-0.18 30.32,-0.42 45.48,-0.58c18.36,-0.18 36.72,-0.23 55.07,-0.47c25.8,-0.34 51.59,-0.24 77.39,-0.27q46.27,-0.06 92.55,0.07q34.57,0.12 69.13,0.52c19.84,0.22 39.68,0.58 59.52,0.88c0.29,0 0.58,0.03 1.2,0.07z" class="cls-1"/>
  <path transform="translate(-2 17)" id="svg_4" d="m9.4,322.69q206.24,-3.46 412.47,0q-206.23,3.45 -412.47,0z" class="cls-1"/>
  <path transform="translate(-2 17)" id="svg_5" d="m100.79,269.32a16.45,16.45 0 0 1 17,16.76c0.06,10 -7.52,17.55 -17.63,17.56a16.41,16.41 0 0 1 -16.64,-16.64a17.09,17.09 0 0 1 17.27,-17.68zm-13.79,18.49c0.09,3.38 2.1,7.62 6,10.91a12.1,12.1 0 0 0 16.57,-0.54c7.86,-7.43 5.6,-21.35 -4.22,-25.91a11.63,11.63 0 0 0 -7.6,-0.84c-6.12,1.38 -10.7,7.62 -10.75,16.38z" class="cls-1"/>
  <path transform="translate(-2 17)" id="svg_6" d="m392.83,286.48c-0.05,9.78 -7.8,17.25 -17.82,17.16c-9.49,-0.08 -16.53,-7.36 -16.49,-17.05a17.06,17.06 0 0 1 17.48,-17.27c9.74,0.04 16.88,7.3 16.83,17.16zm-3.47,0.74a16.45,16.45 0 0 0 -6.14,-13.12c-5.79,-4.7 -13.32,-3.72 -17.87,2.2a16.26,16.26 0 0 0 4.39,23.7a11.38,11.38 0 0 0 12.06,0.17c5.07,-2.8 7.33,-7.35 7.56,-12.95z" class="cls-1"/>
  <path transform="translate(-2 17)" id="svg_7" d="m312.77,303a4.7,4.7 0 0 0 1.89,-4.09q-0.06,-12.47 0,-24.94c0,-1.49 -0.24,-2.79 -1.59,-3.69c7.47,-2.46 18.38,0.09 22.58,5.36s5.2,11.47 2.49,17.77c-2.58,6 -7.53,9.06 -13.94,9.54c-3.61,0.24 -7.2,0.05 -11.43,0.05zm5.41,-16.51l0,10c0,5.3 0,5.3 5.33,4.57c6.07,-0.83 10.89,-4.86 12.2,-10.21a15.64,15.64 0 0 0 -15.94,-19.2c-1.3,0.05 -1.62,0.5 -1.61,1.7c0.05,4.36 0.02,8.74 0.02,13.11l0,0.03z" class="cls-1"/>
  <path transform="translate(-2 17)" id="svg_8" d="m137.53,270c4.09,0 8.11,-0.59 12.09,0.14c4.52,0.83 6.72,3 7,6.83c0.31,4 -1.89,7.13 -6,8.58l-1.73,0.61c4,5.69 7.17,11.76 11.89,16.61c-3,0.73 -4.85,0.08 -6.85,-2.83c-2.66,-3.86 -5.2,-7.79 -7.79,-11.69c-0.33,-0.49 -0.65,-1 -1,-1.48c-0.53,-0.73 -1.36,-0.59 -2.05,-0.51s-0.57,0.93 -0.57,1.47c0,3.79 0,7.59 0,11.38a4,4 0 0 0 1.86,3.67a33.59,33.59 0 0 1 -7.16,0.12c1.86,-1.3 1.92,-2.89 1.92,-4.55q0,-12 0,-24.09c0.01,-1.58 -0.09,-3.09 -1.61,-4.26zm5,7.93c0,1.63 0,3.26 0,4.89c0,0.8 0.06,1.4 1.11,1.52a10.61,10.61 0 0 0 6.07,-0.79a6.33,6.33 0 0 0 3.41,-6.23a5.44,5.44 0 0 0 -4.23,-5.11a19.91,19.91 0 0 0 -5,-0.65c-0.94,0 -1.35,0.3 -1.32,1.27c-0.02,1.72 -0.05,3.42 -0.05,5.17l0.01,-0.07z" class="cls-1"/>
  <path transform="translate(-2 17)" id="svg_9" d="m289.07,297.49l0,-18.22c0,-1.64 0,-3.27 0,-4.91s-0.11,-3.27 -2.46,-4.39l5.95,0c-1.92,1.54 -1.76,3.59 -1.75,5.61c0,8.32 0,16.64 0,25c0,0.84 0.62,2.12 -0.8,2.42a2.8,2.8 0 0 1 -3.36,-1.4c-5.22,-8.46 -10.57,-16.85 -15.88,-25.26c-0.23,-0.37 -0.49,-0.72 -0.77,-1.12c-0.73,0.53 -0.4,1.25 -0.4,1.84c0,7.13 0,14.27 0,21.4c0,1.63 -0.09,3.28 2,4.43a20.52,20.52 0 0 1 -5.7,0c1.73,-1.15 1.85,-2.66 1.84,-4.25q0,-12.36 0,-24.74c0,-1.51 0,-3 -2.09,-3.64c4.57,-1 5,-0.8 7.25,2.74q7.29,11.46 14.56,22.93c0.4,0.61 0.82,1.2 1.23,1.81l0.38,-0.25z" class="cls-1"/>
  <path transform="translate(-2 17)" id="svg_10" d="m23.66,275.86a8.55,8.55 0 0 0 -10.91,-4.2a5.93,5.93 0 0 0 -3.75,5.14c-0.29,2.48 0.9,4.12 2.91,5.31c2.58,1.51 5.47,2.28 8.18,3.5c3.13,1.4 5.59,3.41 6.21,7a8.91,8.91 0 0 1 -6.3,10.2c-4.44,1.46 -8.65,0.23 -12.89,-0.94c-0.81,-0.23 -0.76,-0.8 -0.77,-1.39c0,-1.33 0,-2.66 0.13,-4.11c1.56,4.56 5.14,5.37 9.22,5.19a7.23,7.23 0 0 0 7.13,-5.9c0.53,-3 -1.06,-5.48 -4.58,-7.07c-2.7,-1.22 -5.54,-2.16 -8.17,-3.52a7.86,7.86 0 0 1 -3.66,-10.95c1.51,-2.92 4.18,-4.11 7.21,-4.65s6.2,0.41 9.27,0.87a0.84,0.84 0 0 1 0.8,0.89l-0.03,4.63z" class="cls-1"/>
  <path transform="translate(-2 17)" id="svg_11" d="m202.26,269.83l-8.91,16.81c-2.26,4.27 -4.47,8.56 -6.82,12.77c-0.93,1.66 -0.48,2 1.2,1.91c2.68,-0.08 5.35,0 8,0c4.3,0 4.3,0 6.47,-3.62c0,1.43 0,2.85 0,4.27c0,1.16 -0.77,1.08 -1.51,1.08c-6.1,0 -12.2,0 -18.29,0c-1.69,0 -1.64,-0.53 -1,-1.79c4.77,-8.9 9.49,-17.82 14.23,-26.74a7.44,7.44 0 0 1 0.42,-0.79c1.19,-1.68 0.71,-2.21 -1.26,-2.11a59.17,59.17 0 0 1 -6.92,0c-2.83,-0.19 -5,0.4 -5.6,3.76l-0.51,-0.2c0,-1.5 0,-3 0,-4.49c0,-1.05 0.83,-0.86 1.46,-0.86l19.04,0z" class="cls-1"/>
  <path transform="translate(-2 17)" id="svg_12" d="m233.67,269.24c2.87,7.74 5.59,15.08 8.32,22.41c1,2.71 2,5.42 3,8.13a4.71,4.71 0 0 0 2.61,3a38.81,38.81 0 0 1 -7.08,0.2a2.27,2.27 0 0 0 0.8,-3c-1.28,-3.4 -2.57,-6.8 -3.77,-10.23a1.72,1.72 0 0 0 -2,-1.32c-2.37,0.1 -5.15,-0.63 -7,0.38s-1.78,4 -2.66,6.14c-0.59,1.44 -1,2.95 -1.61,4.38a2.88,2.88 0 0 0 0.52,3.52a17.44,17.44 0 0 1 -5.05,0c1.74,-1.32 2.31,-3.07 2.95,-4.78l9.9,-26.45c0.32,-0.62 0.62,-1.32 1.07,-2.38zm-1,7.17c-0.76,2 -1.34,3.5 -1.89,5c-2.06,5.64 -2.06,5.64 4,5.32l0.22,0c1,0.08 1.38,-0.3 1,-1.3c-1,-2.82 -2.06,-5.64 -3.32,-9.02l-0.01,0z" class="cls-1"/>
  <path transform="translate(-2 17)" id="svg_13" d="m46.13,269.83c5.93,0 11.85,0 17.78,0c1,0 1.32,0.37 1.27,1.31a24.06,24.06 0 0 1 -0.24,3.37c-0.9,-3.25 -3.33,-2.86 -5.6,-2.84s-4.31,0 -6.46,0c-1.26,0 -1.91,0.23 -1.86,1.7c0.09,3.11 0.07,6.24 0,9.35c0,1.27 0.43,1.72 1.67,1.67c1.7,-0.07 3.41,-0.05 5.12,0s3.57,-0.1 4.7,-2l0,5.45c-3.14,-3.09 -7.06,-1.32 -10.64,-1.68c-0.81,-0.08 -0.82,0.68 -0.82,1.29c0,4.08 0,8.16 0,12.25a3.82,3.82 0 0 0 1.94,3.24a40.79,40.79 0 0 1 -7.26,-0.09c1.78,-1.09 1.91,-2.54 1.91,-4q0,-12.36 0,-24.73c0.01,-1.54 0.03,-3.07 -1.51,-4.29z" class="cls-1"/>
  <path transform="translate(-2 17)" id="svg_14" d="m292.69,142.9a6.29,6.29 0 0 1 6.35,6.33a6.39,6.39 0 1 1 -6.35,-6.33zm4.45,4.92c-1.22,0.75 -2.33,1.61 -3.43,0.24s0.06,-2.13 0.76,-3c-2.33,-0.83 -4.26,-0.32 -5.56,1.43a4.59,4.59 0 0 0 0,5.59a4.65,4.65 0 0 0 5.39,1.49c2.22,-0.92 3.12,-2.64 2.84,-5.75z" class="cls-1"/>
  <use transform="matrix(0.483332 0 0 0.483332 0 0)" x="0" y="0" xlink:href="#svg_29" id="svg_30"/>
 </g>
</svg>