<svg width="385.28" height="385.28" xmlns="http://www.w3.org/2000/svg" xmlns:xlink="http://www.w3.org/1999/xlink">
 <defs>
  <style>.cls-1{fill:#323232;}</style>
 </defs>
 <title>лого</title>
 <g>
  <title>Layer 1</title>
  <path id="svg_1" d="m198.80653,280.03423a4.34,4.34 0 0 1 1.09,-2.71q11.47,-18.84 23,-37.65c0.94,-1.51 1.26,-2.2 -1,-2.66q-34.92,-7.12 -69.79,-14.45c-1.35,-0.28 -2,0 -2.37,1.4c-1.59,5.36 -1.63,5.34 3.17,8.29c1.7,1 4.15,1.81 4.82,3.33s-0.22,3.91 -0.84,5.78c-1.15,3.54 -0.36,5.91 3,7.76c2.58,1.4 4.58,3.08 8,2.66c12.69,-1.55 25.43,-2.58 38.15,-3.79a6.79,6.79 0 0 1 2.66,0.27c-5.68,0.78 -11.36,1.6 -17.05,2.35c-8.77,1.17 -17.54,2.27 -26.3,3.45a3.76,3.76 0 0 1 -3.3,-0.8a8.16,8.16 0 0 0 -5.51,-1.87c-17.6,-0.73 -35.18,-1.56 -52.77,-2.38a4.3,4.3 0 0 0 -2.63,0.43c28.89,14.84 58,28.85 85.58,45.73l-0.31,0.66c-2.09,-0.86 -4.19,-1.69 -6.25,-2.61c-18.14,-8 -35.51,-17.61 -53,-26.83c-9.66,-5.08 -19.19,-10.41 -28.75,-15.68a4.7,4.7 0 0 0 -3.39,-0.55q-7.77,1.5 -15.55,2.91a5.47,5.47 0 0 0 -2.89,1.48c-3.3,3.09 -6.66,6.11 -9.72,9.54c1.46,-1 3,-2 4.35,-3.14a29.81,29.81 0 0 1 16.26,-7.54c2.93,-0.38 6,-2.06 8.67,-1.57s5,2.93 7.54,4.55c3,2 6.05,4 9.65,6.39l-51.09,5.18c-0.23,-0.77 0.43,-1.05 0.74,-1.44c4.08,-5 8.2,-10 12.28,-15a3.29,3.29 0 0 1 2.41,-1.34c20.13,-2.05 39.87,-6.41 59.74,-10c5.19,-0.94 10.36,-1.93 15.55,-2.89a2.43,2.43 0 0 0 1.78,-0.75c-2.7,-1.59 -5.33,-3.21 -8,-4.71c-1.28,-0.71 -2,-1.47 -1.27,-3c2.36,-4.77 1.37,-8.88 -2.28,-12.61c-1.08,-1.1 -1.69,-2.66 -2.75,-3.77c-1.63,-1.72 -1.44,-3.24 -0.25,-5.11s2.18,-4.22 3.42,-6.24a2.13,2.13 0 0 0 -0.33,-2.91c-2,-2.33 -3.8,-4.78 -5.78,-7.08c-0.86,-1 -0.89,-1.66 0,-2.61c1.82,-1.86 3.47,-3.88 5.28,-5.75c0.93,-1 1.07,-1.66 0.18,-2.79c-2.25,-2.86 -4.3,-5.88 -6.55,-8.74a2.16,2.16 0 0 1 -0.1,-2.94c1.69,-2.62 3.18,-5.38 4.95,-7.94a2.82,2.82 0 0 0 -0.11,-3.75c-2,-2.8 -3.71,-5.75 -5.64,-8.56c-0.74,-1.08 -0.7,-1.74 0.29,-2.62c1.72,-1.53 3.25,-3.28 5,-4.81a2.23,2.23 0 0 0 0.63,-3c-1.88,-4.12 -3.54,-8.34 -5.42,-12.46a1.79,1.79 0 0 1 0.77,-2.69c2.11,-1.39 4.05,-3 6.19,-4.38c1.57,-1 1.58,-1.85 0.75,-3.38c-1.81,-3.32 -3.32,-6.8 -5.12,-10.13c-0.77,-1.44 -0.49,-2.19 0.77,-3.09c2.91,-2.07 5.67,-4.34 8.55,-6.44a2.81,2.81 0 0 0 1.3,-2.79c-0.29,-4.08 -0.41,-8.17 -0.74,-12.24c-0.15,-1.7 0,-2.64 2,-3.07c3.84,-0.83 7.62,-2 11.36,-3.12c1.47,-0.46 2.06,-0.1 2.73,1.2q12.63,24.44 25.4,48.8c0.37,0.7 0.41,2.4 1.76,1.66s3.91,-0.39 4,-3.1c0.11,-3.56 0.45,-7.12 0.51,-10.68c0,-1.65 0.52,-2.34 2.22,-2.56c2.8,-0.35 5.54,-1.13 8.33,-1.49c1.59,-0.2 1.85,-0.88 1.81,-2.29c-0.09,-3.64 0.08,-7.29 -0.07,-10.93c-0.08,-1.74 0.56,-2.27 2.15,-2.45c3.47,-0.4 6.91,-1 10.37,-1.42a2.34,2.34 0 0 0 2.23,-1.73c1.42,-3.75 3,-7.44 4.35,-11.21c0.55,-1.55 1.26,-1.82 2.76,-1.4q4.94,1.36 9.95,2.41c1.41,0.29 1.73,0.92 1.7,2.25c-0.27,11.59 -0.48,23.18 -0.72,34.77s-0.48,23.32 -0.72,35q-0.61,29.09 -1.24,58.17a8.4,8.4 0 0 0 0.41,3.17c1.49,-2.43 3,-4.82 4.45,-7.29a3.37,3.37 0 0 1 2.82,-1.78c9,-1.23 17.94,-2.55 26.91,-3.84a5.27,5.27 0 0 1 3.85,0.5a417.87,417.87 0 0 0 45.78,24.37a4.11,4.11 0 0 1 2.28,1.56c-7,2 -13.81,4.32 -20.79,5.84c-5.84,1.27 -10,4.24 -13.87,8.71c-4.59,5.35 -8.92,10.71 -11,17.55c-1.77,5.83 -6.88,9 -10.8,13c1.63,-2 3.19,-4.08 4.9,-6a17.65,17.65 0 0 0 4.2,-7.24c2.06,-8.39 7.15,-15 13,-20.9a16.87,16.87 0 0 0 5,-12.53a56.4,56.4 0 0 1 0.79,-7.53a2.49,2.49 0 0 0 -1.41,-2.87q-9,-5.31 -17.91,-10.86a6.69,6.69 0 0 0 -4.84,-1q-12.12,1.8 -24.27,3.43a4.26,4.26 0 0 0 -3.36,2.12q-22.45,35.1 -45,70.16c-0.43,0.75 -0.93,1.48 -1.69,2.65zm32.59,-54.31c-0.06,-1 -0.83,-1.34 -1.33,-1.83q-33.32,-32.55 -66.65,-65.08c-5.8,-5.66 -11.62,-11.28 -17.37,-17c-1,-1 -1.54,-1.05 -2.47,0a50.92,50.92 0 0 1 -4.09,4.09a1.55,1.55 0 0 0 -0.25,2.43c1.87,2.68 3.56,5.49 5.47,8.13c1,1.38 1.2,2.41 0.15,3.92c-1.73,2.49 -3.09,5.24 -4.76,7.78a2.12,2.12 0 0 0 0.2,2.92c2,2.57 4,5.17 5.87,7.85a15.06,15.06 0 0 0 4.9,4.39q37.83,22.4 75.72,44.77c0.74,0.44 1.57,1.68 2.47,0.84a15,15 0 0 0 2.14,-3.21zm1.93,-3.66c1.57,-1.36 2,-2.68 0.55,-4.23a12.72,12.72 0 0 1 -1,-1.47q-32.19,-47.37 -64.37,-94.73q-8.52,-12.52 -17.06,-25c-0.38,-0.55 -0.53,-2 -1.87,-0.91c-2.87,2.36 -5.77,4.68 -8.67,7c-0.45,0.36 -0.71,0.72 -0.37,1.32c2.83,4.87 4.71,10.32 8.29,14.71q36,44.25 72.24,88.37q6.11,7.43 12.26,14.92l0,0.02zm4.22,-6.85c1.5,-1.27 0.77,-2.25 0.27,-3.25c-4.35,-8.69 -8.72,-17.37 -13,-26.08c-1,-2 -2.28,-4 -2.72,-6.32q-2.52,-13.23 -5,-26.46c-2.56,-13.48 -5.15,-27 -7.68,-40.46c-0.29,-1.58 -0.73,-2.31 -2.55,-1.76a37.16,37.16 0 0 1 -5.68,1.05c-1.29,0.17 -1.74,0.8 -1.76,2.05c0,2.45 -0.36,4.91 -0.22,7.34c0.19,3.36 -0.75,5.71 -4.32,6.47c-2.13,0.45 -2.09,1.48 -1.15,3.28q18.42,35.28 36.76,70.65c2.31,4.46 4.65,8.91 7.05,13.47l0,0.02zm82.63,8.69l0.08,-0.32c-0.46,-0.19 -0.91,-0.41 -1.39,-0.57c-5.67,-1.94 -11.34,-3.89 -17,-5.78c-0.6,-0.2 -1.86,-1.3 -1.81,0.53c0,1.17 -1.69,3.07 1.1,3.41c1.76,0.21 3.52,0.5 5.28,0.75l13.74,1.98z" class="cls-1"/>
  <path id="svg_2" d="m188.49699,296.50027c1.36,-2.73 3.47,-4.54 5.15,-6.68q26.09,-33.22 52.22,-66.42c1,-1.24 1.72,-1.44 3.12,-0.78c5.84,2.75 11.7,5.46 17.62,8c1.73,0.75 2.34,1.56 2.25,3.58c-0.57,12.61 -1,25.22 -1.35,37.84a3.71,3.71 0 0 1 -1.06,2.54q-7.62,8.58 -15.19,17.21a3.87,3.87 0 0 1 -2.43,1.36c-12.08,2 -24.15,4.08 -36.23,6.09c-3.74,0.62 -7.36,-0.61 -11,-1c-4.31,-0.38 -8.56,-1.1 -13.1,-1.74z" class="cls-1"/>
  <path transform="translate(-2 17)" id="svg_14" d="m279.58653,194.62423a6.29,6.29 0 0 1 6.35,6.33a6.39,6.39 0 1 1 -6.35,-6.33zm4.45,4.92c-1.22,0.75 -2.33,1.61 -3.43,0.24s0.06,-2.13 0.76,-3c-2.33,-0.83 -4.26,-0.32 -5.56,1.43a4.59,4.59 0 0 0 0,5.59a4.65,4.65 0 0 0 5.39,1.49c2.22,-0.92 3.12,-2.64 2.84,-5.75z" class="cls-1"/>
  <use transform="matrix(0.483332 0 0 0.483332 0 37.9311)" x="-27.11068" y="28.53755" xlink:href="#svg_29" id="svg_30"/>
 </g>
</svg>